<svg width="250" height="250" viewBox="0 0 250 250" fill="none" xmlns="http://www.w3.org/2000/svg">
<rect width="250" height="250" fill="white"/>
<path d="M119.021 182.685C114.66 182.685 110.333 182.364 106.07 181.71C99.6781 180.727 82.1541 177.802 66.6397 164C48.9462 148.26 39.4929 123.384 39.7351 98.0091C45.854 115.778 59.0563 132.594 85.7004 140.743C88.9836 143.031 92.5603 145.197 96.4531 147.222C96.9735 148.797 97.4951 150.32 98.0155 151.782L106.184 151.704C110.851 153.602 115.896 155.323 121.339 156.841C121.339 156.841 121.004 154.948 120.306 151.57L174.459 151.052C182.551 127.11 188.912 81.467 189.532 54.8777C189.532 54.8616 189.533 54.8461 189.533 54.83C189.533 51.4452 171.833 48.6034 147.93 47.8141C146.49 45.396 146.223 42.4271 147.243 39.8393C149.394 34.3795 156.577 31.1824 157.778 25.4923C158.279 23.1167 157.617 20.6534 156.563 18.4287C155.509 16.204 154.07 14.1431 152.908 11.9616C152.352 10.9183 151.886 9.71887 151.743 8.55558C161.839 10.8944 174.391 15.6185 186.074 25.2286C189.257 27.8466 196.276 34.0674 202.603 43.9367C217.459 67.1109 218.736 99.3987 207.654 125.429C192.494 161.036 154.843 182.685 119.021 182.685ZM85.4612 51.5322C81.0998 43.5259 76.2962 35.853 71.0246 28.8623C84.1845 17.5324 100.343 10.1271 116.885 7.38648C116.759 7.53673 116.633 7.68634 116.507 7.83659C116.093 8.32795 115.67 8.8348 115.49 9.42934C115.36 9.85945 115.364 10.3128 115.384 10.7584C115.496 13.2681 116.071 15.761 117.078 18.1044C118.114 20.5154 119.633 22.902 119.458 25.4807C119.211 29.1363 115.722 31.8395 112.554 34.148C109.386 36.4572 105.99 39.3299 106.05 42.9913C106.071 44.2933 106.544 45.5507 107.025 46.7791C107.252 47.3576 107.481 47.9366 107.736 48.506C98.223 49.2018 90.442 50.2574 85.4612 51.5322ZM53.4662 51.3007C53.2314 51.0312 52.9966 50.7642 52.7604 50.4973C53.1439 49.8557 53.5341 49.2211 53.9351 48.5885C53.7724 49.4791 53.6157 50.3838 53.4662 51.3007ZM114.153 48.1056C112.556 45.6371 112.223 42.5322 113.285 39.8393C115.436 34.3795 122.619 31.1824 123.82 25.4923C124.321 23.1167 123.659 20.6534 122.605 18.4287C121.551 16.204 120.112 14.1431 118.95 11.9616C118.181 10.5178 117.584 8.77676 117.776 7.24333C122.233 6.55077 126.716 6.19741 131.172 6.19741C131.888 6.19741 132.601 6.20643 133.316 6.22449C133.735 6.23545 134.234 6.24962 134.802 6.27219C134.364 6.79387 133.925 7.31491 133.486 7.83659C133.072 8.32795 132.649 8.8348 132.469 9.42934C132.339 9.85945 132.343 10.3128 132.363 10.7584C132.475 13.2681 133.05 15.761 134.057 18.1044C135.093 20.5154 136.612 22.902 136.437 25.4807C136.19 29.1363 132.701 31.8395 129.533 34.148C126.365 36.4572 122.97 39.3299 123.028 42.9913C123.05 44.2933 123.524 45.5507 124.004 46.7791C124.127 47.0925 124.25 47.4065 124.379 47.718C120.838 47.8044 117.421 47.9353 114.153 48.1056V48.1056ZM141.331 47.6522C139.084 47.6155 136.798 47.5968 134.476 47.5968C133.253 47.5968 132.038 47.6019 130.835 47.6123C129.497 45.2315 129.272 42.3555 130.264 39.8393C132.415 34.3795 139.598 31.1824 140.799 25.4923C141.3 23.1167 140.638 20.6534 139.584 18.4287C138.53 16.204 137.091 14.1431 135.929 11.9616C134.993 10.2038 134.312 8.00619 134.996 6.27995C138.221 6.41408 143.605 6.80807 150.16 8.20414C149.857 8.58331 149.584 8.98182 149.448 9.42934C149.318 9.85945 149.322 10.3128 149.342 10.7584C149.454 13.2681 150.029 15.761 151.036 18.1044C152.072 20.5154 153.591 22.902 153.416 25.4807C153.169 29.1363 149.68 31.8395 146.512 34.148C143.344 36.4572 139.949 39.3299 140.007 42.9913C140.029 44.2933 140.503 45.5507 140.983 46.7791C141.097 47.0706 141.212 47.3621 141.331 47.6522" fill="url(#paint0_linear)"/>
<path d="M103.859 144.599C103.859 144.599 81.6222 76.7713 44.4043 41.8609C41.9024 39.5144 37.7903 40.8421 37.1628 44.2101C32.9664 66.7318 26.9721 134.483 103.859 144.599Z" fill="#91B3FA"/>
<path d="M52.2491 82.6954C49.7418 76.6726 47.4277 70.1358 45.4133 63.0684C45.3847 62.9678 45.4662 62.8982 45.5458 62.8982C45.5936 62.8982 45.6405 62.9227 45.6629 62.9813C46.8229 66.0237 48.9013 71.2172 51.8667 77.654C51.9527 79.3274 52.0786 81.0059 52.2491 82.6954Z" fill="#C8D9FD"/>
<path d="M121.339 156.841C121.339 156.841 106.512 73.0125 68.4444 25.5439C65.8854 22.3532 60.8055 23.2315 59.4967 27.1038C50.7454 52.996 32.2475 132 121.339 156.841Z" fill="#BDD0FB"/>
<path d="M88.8181 120.045C79.4204 103.525 70.1377 80.5591 66.0616 50.7578C66.0461 50.6443 66.1358 50.5766 66.2234 50.5766C66.2883 50.5766 66.3522 50.614 66.371 50.6966C68.4089 59.7011 74.5295 83.9432 86.2841 108.921C87.0851 112.659 87.9338 116.382 88.8181 120.045" fill="#DEE8FD"/>
<path d="M98.0155 151.782C97.4952 150.32 96.9735 148.797 96.4531 147.222C93.8086 139.22 91.186 129.853 88.8182 120.045C87.9338 116.382 87.0851 112.659 86.2842 108.921C81.9499 88.7008 79.0157 68.1097 79.4197 54.8299C79.4197 55.3986 79.9188 55.9519 80.8632 56.4833C86.8815 59.9435 110.322 62.3932 134.778 62.3932C147.78 62.3932 161.066 61.7013 172.181 60.1008C182.781 58.7918 189.431 56.9366 189.532 54.8776C188.912 81.467 182.552 127.11 174.459 151.052L120.306 151.569L106.184 151.704L98.0155 151.782" fill="url(#paint1_linear)"/>
<path d="M189.533 54.8299C189.533 58.8253 164.883 62.0637 134.476 62.0637C104.069 62.0637 79.4197 58.8253 79.4197 54.8299C79.4197 50.8351 104.069 47.5967 134.476 47.5967C164.883 47.5967 189.533 50.8351 189.533 54.8299Z" fill="#7D97F4"/>
<path d="M187.612 78.9683L187.269 78.7271C187.142 78.6323 186.989 78.5079 186.851 78.397C186.583 78.1719 186.339 77.9456 186.098 77.6941C185.861 77.4439 185.636 77.1763 185.426 76.8951C185.219 76.612 185.029 76.3141 184.855 76.0059C184.167 74.7626 183.836 73.3524 183.792 72.0182C183.743 70.6769 183.931 69.3969 184.223 68.1865C184.517 66.9749 184.919 65.8258 185.375 64.718L185.427 64.5941L185.562 64.3884C186.545 62.8956 187.749 61.4951 189.182 60.3015C190.605 59.0988 192.287 58.1509 194.086 57.5183C194.991 57.2153 195.923 56.9941 196.867 56.8483C197.814 56.7168 198.769 56.6671 199.724 56.6962C201.632 56.7677 203.525 57.1604 205.337 57.9207C206.242 58.3095 207.131 58.7874 207.983 59.4303C208.826 60.0854 209.668 60.8844 210.328 62.1135C210.435 62.2818 210.705 62.7751 210.919 63.1961C211.13 63.6146 211.325 64.0357 211.511 64.4729C211.877 65.348 212.184 66.2823 212.391 67.2664C212.825 69.2286 212.752 71.4178 212.204 73.3569C211.663 75.3056 210.771 77.0105 209.782 78.5182C208.788 80.0303 207.699 81.3813 206.586 82.6716C205.471 83.9561 204.325 85.1723 203.17 86.3594C200.853 88.7228 198.515 90.992 196.161 93.2244C191.455 97.6848 186.793 102.115 182.244 106.662L182.678 106.128C182.506 106.387 182.444 106.56 182.393 106.596C182.349 106.637 182.259 106.58 182.212 106.735C182.21 106.769 182.2 106.818 182.206 106.872C182.211 106.928 182.226 106.989 182.245 107.061C182.289 107.201 182.365 107.371 182.474 107.551C182.58 107.737 182.72 107.927 182.879 108.138C183.04 108.344 183.224 108.554 183.418 108.794L183.606 109.025C184.272 109.848 184.143 111.054 183.318 111.718C182.962 112.005 182.533 112.144 182.109 112.143C181.694 112.143 181.279 112.086 180.859 111.991C180.436 111.9 180.015 111.752 179.589 111.555C178.747 111.157 177.878 110.522 177.195 109.523C176.859 109.025 176.582 108.437 176.421 107.806C176.251 107.176 176.205 106.508 176.254 105.882C176.302 105.253 176.457 104.667 176.648 104.138C176.849 103.611 177.099 103.145 177.365 102.72L177.541 102.437L177.798 102.185C182.454 97.6235 187.224 93.1806 191.96 88.7802C194.32 86.5742 196.697 84.4043 198.952 82.1835C200.078 81.0743 201.176 79.9549 202.207 78.8167C203.232 77.6786 204.198 76.5205 205.006 75.343C205.811 74.1649 206.461 72.9803 206.821 71.8177C207.182 70.6531 207.263 69.5194 207.048 68.3123C206.943 67.7107 206.768 67.0936 206.531 66.4687C206.409 66.1579 206.275 65.8406 206.132 65.5311C205.99 65.2274 205.88 65.0062 205.593 64.4678C205.5 64.2601 205.198 63.8629 204.773 63.5186C204.348 63.1658 203.82 62.8344 203.249 62.5577C202.098 62.0071 200.782 61.6588 199.456 61.5473C198.792 61.4963 198.124 61.4989 197.46 61.5576C196.799 61.6298 196.143 61.7517 195.501 61.9316C194.223 62.3082 192.991 62.8898 191.89 63.7185C190.784 64.5355 189.784 65.5524 188.919 66.7124L189.105 66.3836C188.651 67.3147 188.254 68.2575 187.959 69.2002C187.665 70.1417 187.473 71.0838 187.448 71.9776C187.424 72.8713 187.552 73.7064 187.888 74.4544C188.056 74.8284 188.277 75.1818 188.546 75.5145C188.679 75.6789 188.833 75.8447 188.982 75.993L189.203 76.2039L189.527 76.4702C190.199 77.0241 190.293 78.0159 189.738 78.6852C189.21 79.3229 188.279 79.4351 187.612 78.9683" fill="url(#paint2_linear)"/>
<path d="M134.778 62.3932C110.322 62.3932 86.8815 59.9435 80.8632 56.4833C80.7941 56.4433 80.7275 56.4033 80.6628 56.3633C88.5829 54.0761 98.8307 52.6452 109.863 51.8772C111.729 54.0194 114.225 55.7082 116.177 57.7826C116.88 58.5294 117.611 59.4496 118.412 59.4496C118.818 59.4496 119.242 59.2135 119.689 58.6009C120.498 57.4925 120.244 55.8617 119.677 54.7209C119.07 53.5009 118.123 52.4743 117.13 51.469C120.162 51.3375 123.224 51.2504 126.291 51.204C128.191 53.6782 131.003 55.496 133.156 57.7826C133.859 58.5294 134.59 59.4496 135.391 59.4496C135.797 59.4496 136.221 59.2135 136.668 58.6009C137.477 57.4925 137.223 55.8617 136.656 54.7209C135.989 53.3803 134.911 52.2731 133.813 51.1711C137.039 51.1904 140.244 51.2523 143.385 51.3517C145.282 53.7511 148.026 55.5418 150.135 57.7826C150.838 58.5294 151.569 59.4496 152.37 59.4496C152.776 59.4496 153.2 59.2135 153.647 58.6009C154.456 57.4925 154.202 55.8617 153.635 54.7209C153.072 53.5892 152.217 52.6239 151.303 51.6883C168.298 52.5968 182.42 54.5888 187.321 56.8644C183.082 58.2057 177.921 59.2748 172.181 60.1008C161.066 61.7013 147.78 62.3932 134.778 62.3932" fill="url(#paint3_linear)"/>
<path d="M79.4197 54.83C76.7907 66.6402 183.332 68.2626 189.403 55.3226C174.434 65.3918 83.2686 64.6676 79.4197 54.83" fill="#91B3FA"/>
<path d="M134.996 6.27994C134.93 6.27736 134.866 6.27477 134.802 6.27219C134.972 6.06971 135.143 5.86724 135.313 5.6654C135.186 5.86208 135.08 6.06714 134.996 6.27994Z" fill="#B4CBFC"/>
<path d="M124.379 47.718C124.25 47.4065 124.127 47.0925 124.004 46.7791C123.524 45.5507 123.05 44.2933 123.028 42.9913C122.97 39.3299 126.365 36.4572 129.533 34.148C132.701 31.8395 136.19 29.1363 136.437 25.4807C136.612 22.902 135.093 20.5154 134.057 18.1044C133.05 15.761 132.475 13.2681 132.363 10.7584C132.343 10.3128 132.339 9.85945 132.469 9.42934C132.649 8.8348 133.072 8.32795 133.486 7.83658C133.925 7.31491 134.364 6.79387 134.802 6.27219C134.866 6.27477 134.93 6.27736 134.996 6.27994C134.312 8.00618 134.993 10.2038 135.929 11.9616C137.091 14.1431 138.53 16.204 139.584 18.4287C140.638 20.6534 141.3 23.1167 140.799 25.4923C139.598 31.1824 132.415 34.3795 130.264 39.8393C129.272 42.3555 129.497 45.2315 130.835 47.6122C128.645 47.631 126.49 47.6671 124.379 47.718" fill="url(#paint4_linear)"/>
<path d="M135.313 5.66547C135.466 5.43011 135.652 5.207 135.873 5C135.687 5.22183 135.5 5.44365 135.313 5.66547Z" fill="#B4CBFC"/>
<path d="M126.291 51.204C126.116 50.9758 125.948 50.7423 125.789 50.5018C125.209 49.6235 124.772 48.6782 124.379 47.718C126.49 47.6671 128.645 47.631 130.835 47.6123C130.977 47.8676 131.134 48.1172 131.303 48.3597C132.009 49.3759 132.917 50.2716 133.813 51.1712C133.082 51.1666 132.351 51.1647 131.618 51.1647C129.844 51.1647 128.069 51.1776 126.291 51.204" fill="#8BAAF8"/>
<path d="M135.391 59.4496C134.59 59.4496 133.859 58.5294 133.156 57.7827C131.003 55.4961 128.191 53.6783 126.291 51.204C128.069 51.1776 129.844 51.1647 131.618 51.1647C132.351 51.1647 133.082 51.1666 133.813 51.1712C134.911 52.2732 135.989 53.3804 136.656 54.721C137.223 55.8617 137.477 57.4925 136.668 58.601C136.221 59.2136 135.797 59.4496 135.391 59.4496Z" fill="url(#paint5_linear)"/>
<path d="M116.885 7.38649C117.368 6.81258 117.851 6.23932 118.334 5.66541C118.022 6.14646 117.845 6.68104 117.776 7.24334C117.48 7.28977 117.181 7.33748 116.885 7.38649" fill="#B4CBFC"/>
<path d="M107.736 48.5059C107.481 47.9366 107.252 47.3575 107.025 46.7791C106.544 45.5507 106.071 44.2932 106.05 42.9913C105.99 39.3299 109.386 36.4571 112.554 34.1479C115.722 31.8394 119.211 29.1362 119.458 25.4806C119.633 22.9019 118.114 20.5154 117.078 18.1043C116.071 15.761 115.496 13.268 115.384 10.7583C115.364 10.3127 115.36 9.8594 115.49 9.42929C115.67 8.83475 116.093 8.32791 116.507 7.83654C116.633 7.68629 116.759 7.53668 116.885 7.38644C117.181 7.33743 117.479 7.28971 117.776 7.24329C117.584 8.77672 118.181 10.5178 118.95 11.9616C120.112 14.1431 121.551 16.204 122.605 18.4287C123.659 20.6534 124.321 23.1167 123.82 25.4923C122.619 31.1823 115.436 34.3794 113.285 39.8393C112.223 42.5321 112.556 45.6371 114.153 48.1055C111.941 48.2209 109.797 48.3551 107.736 48.5059" fill="url(#paint6_linear)"/>
<path d="M109.863 51.8773C109.483 51.4401 109.128 50.9842 108.81 50.5018C108.39 49.8647 108.045 49.1928 107.737 48.506C109.797 48.3552 111.941 48.221 114.153 48.1056C114.209 48.1914 114.265 48.2758 114.324 48.3597C115.108 49.4881 116.141 50.4676 117.13 51.4691C114.682 51.5755 112.253 51.7109 109.863 51.8773" fill="#8BAAF8"/>
<path d="M118.412 59.4496C117.611 59.4496 116.88 58.5294 116.177 57.7827C114.225 55.7083 111.729 54.0194 109.863 51.8773C112.253 51.7109 114.682 51.5755 117.13 51.4691C118.123 52.4744 119.07 53.501 119.677 54.721C120.244 55.8617 120.498 57.4925 119.689 58.601C119.242 59.2136 118.818 59.4496 118.412 59.4496Z" fill="url(#paint7_linear)"/>
<path d="M118.334 5.66547C118.487 5.43011 118.673 5.207 118.895 5C118.708 5.22183 118.521 5.44365 118.334 5.66547Z" fill="#B4CBFC"/>
<path d="M151.743 8.5556C151.208 8.43179 150.681 8.31508 150.16 8.20416C150.26 8.07971 150.363 7.95784 150.464 7.83661C151.074 7.11245 151.683 6.38893 152.292 5.66542C151.743 6.51016 151.615 7.51934 151.743 8.5556Z" fill="#B4CBFC"/>
<path d="M147.93 47.8141C145.778 47.7432 143.575 47.689 141.331 47.6522C141.212 47.3621 141.097 47.0706 140.983 46.7791C140.503 45.5507 140.029 44.2933 140.007 42.9913C139.949 39.3299 143.344 36.4572 146.513 34.148C149.68 31.8395 153.169 29.1363 153.416 25.4807C153.591 22.902 152.072 20.5154 151.036 18.1044C150.029 15.761 149.454 13.2681 149.342 10.7584C149.323 10.3128 149.318 9.85946 149.448 9.42935C149.584 8.98183 149.857 8.58332 150.16 8.20415C150.681 8.31506 151.208 8.43178 151.743 8.55559C151.886 9.71888 152.352 10.9183 152.908 11.9616C154.07 14.1431 155.509 16.204 156.563 18.4287C157.617 20.6534 158.279 23.1167 157.778 25.4923C156.577 31.1824 149.394 34.3795 147.243 39.8393C146.223 42.4271 146.49 45.3959 147.93 47.8141" fill="url(#paint8_linear)"/>
<path d="M151.303 51.6883C148.723 51.5503 146.076 51.4368 143.385 51.3517C143.167 51.077 142.961 50.7939 142.768 50.5018C142.175 49.6029 141.732 48.6343 141.331 47.6522C143.575 47.689 145.778 47.7432 147.93 47.8141C148.041 47.9998 148.158 48.1817 148.282 48.3596C149.123 49.57 150.251 50.6101 151.303 51.6883" fill="#8BAAF8"/>
<path d="M152.37 59.4496C151.569 59.4496 150.838 58.5294 150.135 57.7827C148.026 55.5419 145.282 53.7512 143.385 51.3517C146.076 51.4368 148.723 51.5503 151.303 51.6883C152.217 52.624 153.072 53.5893 153.635 54.721C154.202 55.8617 154.456 57.4925 153.647 58.601C153.2 59.2136 152.776 59.4496 152.37 59.4496" fill="url(#paint9_linear)"/>
<path d="M152.292 5.66547C152.445 5.43011 152.631 5.207 152.852 5C152.666 5.22183 152.479 5.44365 152.292 5.66547Z" fill="#B4CBFC"/>
<path d="M174.459 151.052C174.459 154.052 153.938 156.785 133.992 156.785C114.046 156.785 97.8766 154.354 97.8766 151.355C97.8766 148.355 114.046 145.924 133.992 145.924C153.938 145.924 174.459 148.053 174.459 151.052" fill="url(#paint10_linear)"/>
<path d="M194.779 155.706C194.657 156.155 194.193 156.421 193.742 156.299L193.596 156.26C193.145 156.139 192.878 155.676 193 155.226L195.733 145.145C195.854 144.695 196.318 144.429 196.769 144.55L196.916 144.59C197.366 144.712 197.633 145.175 197.511 145.624L194.779 155.706Z" fill="#7D97F4"/>
<path d="M193.426 157.022C193.981 157.841 196.187 176.384 196.531 183.233C196.555 183.696 196.183 184.082 195.719 184.082C195.318 184.082 194.976 183.791 194.914 183.396L190.881 157.612L193.426 157.022" fill="#91B3FA"/>
<path d="M175.697 157.022C175.142 157.841 172.937 176.384 172.592 183.233C172.569 183.696 172.94 184.082 173.405 184.082C173.805 184.082 174.147 183.791 174.209 183.396L178.242 157.612L175.697 157.022" fill="#91B3FA"/>
<path d="M196.762 155.575L196.764 155.777C196.777 157.232 195.521 158.425 193.948 158.452L175.305 158.769C173.754 158.794 172.462 157.677 172.386 156.245L172.377 156.06C172.298 154.566 173.57 153.308 175.187 153.279L193.838 152.946C195.434 152.917 196.748 154.099 196.762 155.575" fill="#91B3FA"/>
<path d="M200.465 126.552C200.403 124.842 197.063 125.359 196.071 125.394C192.503 125.522 193.315 130.031 193.274 132.42C193.218 135.779 193.492 139.183 193.742 142.532C193.821 143.596 193.939 144.654 193.976 145.721C194.026 147.12 195.911 147.294 197.197 147.249C197.872 147.225 198.427 146.712 198.504 146.043C198.967 142.032 200.529 128.328 200.465 126.552" fill="#7D97F4"/>
<path d="M194.042 170.297C194.042 170.771 193.656 171.155 193.182 171.155H175.185C174.71 171.155 174.326 170.771 174.326 170.297V170.264C174.326 169.791 174.71 169.406 175.185 169.406H193.182C193.656 169.406 194.042 169.791 194.042 170.264V170.297Z" fill="#91B3FA"/>
<path d="M140.626 174.476H138.729V154.014H140.626V174.476Z" fill="#7D97F4"/>
<path d="M147.984 174.87H131.371C131.371 174.19 131.924 173.638 132.606 173.638H146.749C147.431 173.638 147.984 174.19 147.984 174.87Z" fill="#7D97F4"/>
<path d="M150.449 153.304C150.449 154.423 149.531 155.339 148.409 155.339H131.602C130.48 155.339 129.562 154.423 129.562 153.304V151.464C129.562 150.345 130.48 149.429 131.602 149.429H148.409C149.531 149.429 150.449 150.345 150.449 151.464V153.304Z" fill="url(#paint11_linear)"/>
<path d="M154.75 140.097L153.431 139.746L149.426 138.82C148.944 138.71 148.438 138.795 148.019 139.058L144.575 141.219L154.084 141.202L154.75 140.097Z" fill="url(#paint12_linear)"/>
<path d="M161.842 182.867C165.185 182.867 166.664 182.581 167.325 182.32C167.196 182.867 166.708 183.3 166.09 183.3H154.264C153.866 183.3 153.614 182.92 153.709 182.575C155.058 182.683 157.921 182.867 161.842 182.867" fill="url(#paint13_linear)"/>
<path d="M153.709 182.575C153.729 182.506 153.757 182.437 153.806 182.374C154.707 181.227 156.517 179.425 158.978 179.46C162.585 179.51 163.842 179.901 166.644 179.482L167.305 181.668C167.373 181.891 167.373 182.113 167.325 182.32C166.664 182.58 165.185 182.867 161.842 182.867C157.921 182.867 155.058 182.683 153.709 182.575" fill="url(#paint14_linear)"/>
<path d="M165.832 177.126L166.644 179.879C166.644 179.879 164.846 180.696 163.265 180.04L162.954 177.655L165.832 177.126Z" fill="url(#paint15_linear)"/>
<path d="M141.322 181.133C143.927 183.222 145.26 183.924 145.938 184.135C145.496 184.479 144.844 184.509 144.362 184.123L135.144 176.734C134.833 176.486 134.875 176.033 135.164 175.825C136.148 176.752 138.265 178.683 141.322 181.133Z" fill="url(#paint16_linear)"/>
<path d="M135.164 175.825C135.223 175.783 135.287 175.748 135.365 175.73C136.784 175.403 139.321 175.136 141.218 176.7C143.998 178.993 144.734 180.081 147.18 181.507L146.33 183.616C146.243 183.831 146.105 184.004 145.938 184.135C145.26 183.924 143.927 183.221 141.322 181.133C138.265 178.683 136.148 176.752 135.164 175.825" fill="url(#paint17_linear)"/>
<path d="M183.191 145.759C183.191 145.759 163.178 147.389 159.073 149.317C154.967 151.245 162.423 178.267 162.423 178.267C162.423 178.267 163.541 178.804 166.028 178.032C166.028 178.032 163.477 158.091 165.375 153.767L187.045 150.232L183.191 145.759Z" fill="url(#paint18_linear)"/>
<path d="M149.169 177.711C148.983 177.88 147.18 181.508 147.18 181.508C147.18 181.508 145.174 181.074 144.765 179.807L146.57 176.534L149.169 177.711" fill="url(#paint19_linear)"/>
<path d="M195.245 145.593C195.245 145.593 195.898 147.158 195.871 149.238C195.834 152.115 193.516 154.449 190.635 154.593L166.976 155.669C166.476 155.692 166.053 156.037 165.928 156.52C165.372 158.665 162.654 165.253 149.371 178.398C149.017 178.748 148.467 178.808 148.046 178.542L146.155 177.351C145.957 177.226 145.893 176.966 146.012 176.764L159.788 153.298C160.511 152.107 161.674 151.246 163.027 150.901L183.191 145.759L195.245 145.593Z" fill="url(#paint20_linear)"/>
<path d="M171.93 108.936C171.93 108.936 174.464 113.406 177.048 115.572L171.707 118.545C171.707 118.545 170.503 113.812 167.754 112.426L171.93 108.936Z" fill="url(#paint21_linear)"/>
<path d="M195.675 145.759C195.675 145.759 189.289 147.312 183.191 145.759C183.191 145.759 174.661 134.319 171.361 131.205C171.361 131.205 166.096 139.492 154.378 140.667L153.725 139.211C153.725 139.211 163.053 134.92 165.925 128.329C168.797 121.738 169.951 118.927 172.563 117.207C174.191 116.136 175.165 115.405 175.668 115.005C175.944 114.787 176.324 114.761 176.625 114.945C179.398 116.63 192.444 125.544 195.675 145.759" fill="url(#paint22_linear)"/>
<path d="M172.737 129.417C172.878 129.417 173.017 129.354 173.109 129.234C174.607 127.285 175.441 125.138 175.476 125.047C175.569 124.806 175.448 124.536 175.206 124.443C174.964 124.35 174.693 124.471 174.6 124.712C174.592 124.733 173.777 126.827 172.364 128.664C172.207 128.869 172.246 129.163 172.452 129.32C172.537 129.385 172.637 129.417 172.737 129.417Z" fill="url(#paint23_linear)"/>
<path d="M167.905 102.233C167.905 102.233 165.442 106.317 165.015 108.575C164.588 110.832 163.901 112.243 166.477 113.048C169.053 113.852 171.446 112.834 172.949 110.727C172.949 110.727 175.295 107.484 175.061 105.999C174.827 104.514 167.905 102.233 167.905 102.233Z" fill="url(#paint24_linear)"/>
<path d="M172.055 105.405C172.055 105.405 164.266 102.809 164.956 99.1646C165.646 95.5213 169.101 95.3078 170.894 98.3882C172.688 101.469 177.781 101.939 176.815 104.819C176.424 106.554 179.873 108.228 172.398 111.558C173.27 108.888 172.608 108.875 172.269 108.875C171.93 108.875 171.838 108.875 171.838 108.875C171.838 108.875 174.102 105.67 172.055 105.405Z" fill="url(#paint25_linear)"/>
<path d="M172.126 109.385C172.126 109.385 173.213 106.712 174.355 107.651C175.496 108.591 173.299 110.667 172.286 110.64L172.126 109.385Z" fill="url(#paint26_linear)"/>
<path d="M167.062 101.674C167.056 101.674 167.049 101.673 167.042 101.67C167.002 101.654 166.075 101.256 166.075 99.616C166.075 97.9781 167.954 97.094 167.973 97.0856C167.999 97.0728 168.033 97.0844 168.045 97.1121C168.058 97.1398 168.046 97.1721 168.019 97.1843C168 97.1933 166.185 98.0484 166.185 99.616C166.185 101.184 167.075 101.565 167.084 101.569C167.112 101.581 167.124 101.612 167.113 101.641C167.104 101.661 167.084 101.674 167.062 101.674" fill="#91B3FA"/>
<path d="M123.455 141.678C123.455 141.678 120.637 142.113 117.468 144.226C116.969 144.559 116.696 145.138 116.771 145.732C117.15 148.73 118.71 158.434 123.855 167.913C124.126 168.413 124.204 168.994 124.085 169.55L123.191 173.699L121.533 175.249H125.803L128.645 167.576L127.43 167.193C126.487 166.895 125.84 166.031 125.824 165.045L125.681 156.813C125.803 153.145 123.427 150.615 123.427 150.615L130.245 150.284L123.455 141.678Z" fill="url(#paint27_linear)"/>
<path d="M119.866 175.998C119.478 176.505 124.051 177.175 126.361 176.065C126.361 176.065 129.564 170.506 129.564 167.643C129.564 167.643 129.31 167.061 127.43 167.193C127.43 167.193 126.354 173.775 125.218 174.512C124.083 175.249 122.041 174.587 122.041 174.587C122.041 174.587 120.44 175.249 119.866 175.998Z" fill="url(#paint28_linear)"/>
<path d="M129.382 150.736C129.346 150.673 122.041 149.859 122.041 149.859C122.041 149.859 122.28 152.075 121.533 155.125C120.786 158.175 110.062 171.389 110.062 171.389L111.186 174.944C107.709 176.153 104.289 176.346 100.924 175.56L107.893 171.389C107.893 171.389 114.415 149.217 118.41 145.261L125.732 142.734L129.382 150.736Z" fill="url(#paint29_linear)"/>
<path d="M145.764 137.834C145.764 137.834 149.972 144.079 150.318 146.927C150.663 149.776 149.165 150.933 144.749 151.124C140.333 151.315 128.545 151.312 128.545 151.312L118.483 142.734C118.483 142.734 125.816 140.124 127.722 139.386C129.628 138.648 145.764 137.834 145.764 137.834" fill="url(#paint30_linear)"/>
<path d="M110.761 173.747C110.761 173.747 111.972 174.917 111.154 176.218C111.154 176.218 101.563 177.914 98.9593 177.145C98.9593 177.145 99.5004 175.914 102.432 174.512L102.216 174.678C101.942 174.888 102.103 175.324 102.447 175.305C104.38 175.195 108.378 174.842 110.761 173.747" fill="url(#paint31_linear)"/>
<path d="M133.665 102.395C133.665 102.395 135.887 96.7497 129.316 97.608C122.745 98.4663 123.863 102.328 123.343 104.262C122.824 106.196 120.067 108.388 112.395 111.371C104.724 114.355 106.998 122.49 110.444 125.19C113.89 127.89 115.77 126.095 116.571 130.755C117.372 135.415 120.569 139.2 124.558 135.249C128.548 131.299 133.081 126.628 131.813 120.502C130.545 114.377 131.981 115.536 134.457 112.726C136.932 109.916 131.685 107.196 133.665 102.395" fill="url(#paint32_linear)"/>
<path d="M120.58 108.857C120.555 108.857 120.533 108.841 120.524 108.817C120.513 108.786 120.529 108.752 120.56 108.741C123.311 107.787 124.668 106.05 124.383 103.851C124.082 101.538 125.542 101.158 125.557 101.154C125.589 101.146 125.621 101.166 125.628 101.197C125.636 101.229 125.617 101.261 125.584 101.269C125.529 101.283 124.215 101.632 124.5 103.836C124.794 106.097 123.409 107.878 120.599 108.853C120.593 108.855 120.586 108.857 120.58 108.857" fill="#91B3FA"/>
<path d="M114.817 126.103C114.807 126.103 114.797 126.1 114.788 126.095C111.637 124.35 109.781 122.239 109.272 119.823C108.607 116.668 110.532 114.091 110.552 114.066C110.571 114.04 110.609 114.035 110.635 114.055C110.661 114.074 110.666 114.111 110.646 114.137C110.627 114.163 108.734 116.699 109.388 119.8C109.891 122.18 111.727 124.264 114.846 125.992C114.874 126.007 114.885 126.044 114.869 126.073C114.858 126.092 114.838 126.103 114.817 126.103" fill="#91B3FA"/>
<path d="M134.382 137.008C134.382 137.008 129.482 132.353 127.069 129.27C125.765 127.603 125.356 125.409 125.959 123.382C127.06 119.68 129.018 115.847 129.196 115.25C129.469 114.335 134.965 114.373 134.965 114.373C134.965 114.373 145.778 121.374 150.026 133.233L145.255 134.715C145.255 134.715 142.432 129.989 139.642 126.986C139.642 126.986 144.469 133.346 144.639 135.951L134.382 137.008" fill="url(#paint33_linear)"/>
<path d="M128.531 110.139C128.589 110.329 130.023 115.072 130.135 115.17C130.247 115.269 133.281 115.431 134.708 114.458L131.167 107.548L128.531 110.139Z" fill="url(#paint34_linear)"/>
<path d="M130.733 101.529C130.733 101.529 133.292 102.687 134.952 106.465C136.613 110.243 135.253 111.931 133.596 112.123C131.939 112.316 129.471 112.215 126.924 109.736C124.376 107.256 127.402 100.147 130.733 101.529Z" fill="url(#paint35_linear)"/>
<path d="M128.732 107.79C128.732 107.79 126.924 102.279 131.778 102.344L132.898 103.17C132.898 103.17 134.758 100.191 131.875 98.6681C128.992 97.1463 125.541 98.249 124.193 102.143C122.845 106.036 122.563 108.659 124.582 110.593C126.6 112.526 127.509 110.418 127.509 110.418C127.509 110.418 126.43 108.632 126.913 107.704C127.397 106.776 128.424 107.938 128.424 107.938L128.732 107.79" fill="url(#paint36_linear)"/>
<path d="M128.171 108.383C128.171 108.383 127.259 105.545 125.912 106.631C124.565 107.715 126.913 109.256 127.836 109.759L128.171 108.383Z" fill="url(#paint37_linear)"/>
<path d="M68.1085 155.706C68.2303 156.155 68.6945 156.421 69.1451 156.299L69.2916 156.26C69.7421 156.139 70.0091 155.676 69.8869 155.226L67.1548 145.145C67.0329 144.695 66.5688 144.429 66.1181 144.55L65.9717 144.59C65.521 144.712 65.2544 145.175 65.3763 145.624L68.1085 155.706Z" fill="#7D97F4"/>
<path d="M69.4609 157.022C68.9061 157.841 66.7009 176.384 66.3558 183.233C66.3325 183.696 66.7038 184.082 67.1687 184.082C67.5696 184.082 67.9107 183.791 67.9725 183.396L72.0059 157.612L69.4609 157.022Z" fill="#7D97F4"/>
<path d="M87.1905 157.022C87.7451 157.841 89.9501 176.384 90.2953 183.233C90.3185 183.696 89.9475 184.082 89.4827 184.082C89.0813 184.082 88.7406 183.791 88.6786 183.396L84.6455 157.612L87.1905 157.022Z" fill="#7D97F4"/>
<path d="M66.1252 155.575L66.1233 155.777C66.1099 157.232 67.3663 158.425 68.9394 158.452L87.5822 158.769C89.133 158.794 90.4252 157.677 90.5008 156.245L90.5105 156.06C90.5887 154.566 89.3172 153.308 87.7005 153.279L69.0493 152.946C67.4531 152.917 66.1387 154.099 66.1252 155.575" fill="#91B3FA"/>
<path d="M62.422 126.552C62.4837 124.842 65.8248 125.359 66.8163 125.394C70.3846 125.522 69.5725 130.031 69.6125 132.42C69.6688 135.779 69.3948 139.183 69.145 142.532C69.0657 143.596 68.9482 144.654 68.9108 145.721C68.8618 147.12 66.9769 147.294 65.6903 147.249C65.0156 147.225 64.4601 146.712 64.3829 146.043C63.9201 142.032 62.3584 128.328 62.422 126.552" fill="#7D97F4"/>
<path d="M88.2332 170.264C88.2332 169.791 87.8479 169.406 87.3735 169.406H69.3768C68.902 169.406 68.5171 169.791 68.5171 170.264V170.297C68.5171 170.771 68.902 171.155 69.3768 171.155H87.3735C87.8479 171.155 88.2332 170.771 88.2332 170.297V170.264" fill="#7D97F4"/>
<path d="M93.0871 100.206C93.0871 100.206 84.7495 99.3942 80.6964 110.054C78.9343 114.689 75.898 117.538 72.1972 120.618C64.6562 126.893 64.0505 142.371 76.5205 142.522C86.5951 142.644 95.1926 133.96 93.4711 128.011C91.7503 122.061 96.0536 103.642 96.4175 102.619C96.7821 101.596 95.4207 100.113 93.4711 100.192L93.0871 100.206" fill="url(#paint38_linear)"/>
<path d="M85.3468 143.218C85.3468 143.218 92.1738 134.724 94.4925 131.761C95.7453 130.159 96.139 128.051 95.5591 126.103C94.5009 122.546 92.6198 118.861 92.4485 118.288C92.1854 117.409 86.9047 117.446 86.9047 117.446C86.9047 117.446 76.5134 124.173 72.4306 135.57L77.0157 136.994C77.0157 136.994 79.7287 132.453 82.4101 129.566C82.4101 129.566 74.4552 140.716 74.2923 143.218H85.3468" fill="url(#paint39_linear)"/>
<path d="M93.0872 113.376C93.0322 113.559 91.6534 118.117 91.5461 118.211C91.4381 118.306 88.5234 118.463 87.151 117.527L90.5545 110.887L93.0872 113.376Z" fill="url(#paint40_linear)"/>
<path d="M95.02 103.976C95.02 103.976 97.115 105.677 97.7343 109.592C98.3529 113.508 96.6754 114.745 95.0885 114.521C93.5009 114.296 91.2319 113.601 89.471 110.676C87.7102 107.752 92.2623 101.881 95.02 103.976Z" fill="url(#paint41_linear)"/>
<path d="M91.6282 109.309C91.6282 109.309 91.2965 103.747 95.7918 104.988L96.6309 106.029C96.6309 106.029 99.0899 103.713 96.7821 101.596C94.475 99.4793 90.9972 99.6637 88.7916 102.954C86.586 106.245 85.6817 108.614 87.0844 110.903C88.4878 113.192 89.8485 111.454 89.8485 111.454C89.8485 111.454 89.2823 109.53 89.9584 108.786C90.6352 108.041 91.3056 109.372 91.3056 109.372L91.6282 109.309" fill="url(#paint42_linear)"/>
<path d="M90.9624 109.724C90.9624 109.724 90.8085 106.864 89.2914 107.544C87.7736 108.225 89.579 110.229 90.3127 110.921L90.9624 109.724Z" fill="url(#paint43_linear)"/>
<path d="M97.0588 139.53L93.5985 136.202L88.8117 138.219C88.8117 138.219 84.0469 138.956 81.3203 138.219C78.593 137.483 78.593 137.483 78.593 137.483L72.4306 135.57L71.4629 138.298C71.2166 138.991 71.4635 139.76 72.0641 140.186C72.5974 140.563 73.2225 140.979 73.6207 141.153C74.4326 141.507 93.6263 140.908 93.6263 140.908L97.0588 139.53" fill="url(#paint44_linear)"/>
<path d="M97.925 146.821C97.925 146.821 100.822 147.269 104.078 149.441C104.591 149.783 104.872 150.379 104.795 150.989C104.405 154.07 102.801 164.043 97.5139 173.784C97.2353 174.298 97.1552 174.895 97.278 175.467L98.1965 179.731L99.9005 181.324H95.5126L92.5914 173.437L93.8403 173.043C94.8093 172.738 95.4738 171.849 95.4912 170.836L95.6373 162.376C95.5126 158.607 97.9548 156.007 97.9548 156.007L90.9475 155.666L97.925 146.821" fill="url(#paint45_linear)"/>
<path d="M101.614 182.093C102.013 182.615 97.3129 183.303 94.9379 182.163C94.9379 182.163 91.6463 176.449 91.6463 173.508C91.6463 173.508 91.9075 172.907 93.8403 173.043C93.8403 173.043 94.9457 179.808 96.1131 180.566C97.2799 181.324 99.3782 180.643 99.3782 180.643C99.3782 180.643 101.024 181.324 101.614 182.093" fill="url(#paint46_linear)"/>
<path d="M91.8337 156.13C91.8712 156.066 99.3782 155.23 99.3782 155.23C99.3782 155.23 99.1326 157.507 99.9005 160.641C100.668 163.776 111.69 177.356 111.69 177.356L110.534 181.01C114.108 182.252 117.623 182.45 121.081 181.644L113.919 177.356C113.919 177.356 107.216 154.569 103.11 150.504L95.585 147.907L91.8337 156.13Z" fill="url(#paint47_linear)"/>
<path d="M110.971 179.78C110.971 179.78 109.727 180.982 110.567 182.319C110.567 182.319 120.424 184.062 123.1 183.271C123.1 183.271 122.544 182.006 119.531 180.566L119.753 180.736C120.035 180.952 119.869 181.4 119.516 181.38C117.53 181.268 113.421 180.905 110.971 179.78Z" fill="url(#paint48_linear)"/>
<path d="M74.9982 141.785C74.9982 141.785 70.6729 148.203 70.3181 151.13C69.9632 154.058 71.503 155.247 76.0409 155.443C80.5795 155.64 93.5009 156.329 93.5009 156.329L102.266 147.907C102.266 147.907 88.2267 143.281 86.2674 142.522C84.3087 141.764 74.9982 141.785 74.9982 141.785Z" fill="url(#paint49_linear)"/>
<path d="M69.9166 135.624C69.8959 135.624 69.8759 135.612 69.8668 135.592C68.433 132.511 69.8727 128.62 70.8585 126.576C71.7602 124.707 73.1294 123.115 74.2218 121.935C74.2425 121.914 74.2774 121.912 74.2994 121.933C74.3214 121.953 74.3227 121.987 74.3026 122.01C73.2153 123.183 71.8527 124.768 70.9574 126.624C69.98 128.651 68.5513 132.505 69.9658 135.547C69.9787 135.574 69.967 135.607 69.9392 135.619C69.9321 135.623 69.9244 135.624 69.9166 135.624" fill="#91B3FA"/>
<path d="M96.9088 103.86H96.9082C96.8778 103.859 96.8539 103.835 96.8545 103.804C96.8674 103.091 96.6477 102.504 96.2016 102.058C95.2294 101.086 93.4886 101.104 93.4724 101.103H93.4718C93.4414 101.103 93.4168 101.079 93.4168 101.049C93.4162 101.019 93.4401 100.994 93.4705 100.993C93.5396 100.995 95.274 100.976 96.2792 101.981C96.7472 102.448 96.9773 103.062 96.9638 103.806C96.9631 103.836 96.9386 103.86 96.9088 103.86" fill="#91B3FA"/>
<path d="M166.69 185C166.79 185 166.892 184.977 166.989 184.931C167.375 184.747 167.552 184.249 167.387 183.821L151.481 142.619C151.315 142.19 150.87 141.992 150.485 142.177C150.1 142.361 149.922 142.858 150.088 143.287L165.993 184.489C166.117 184.808 166.397 185 166.69 185Z" fill="#91B3FA"/>
<path d="M148.772 185C149.066 185 149.346 184.808 149.469 184.489L165.375 143.287C165.54 142.858 165.362 142.361 164.978 142.177C164.593 141.992 164.147 142.19 163.982 142.619L148.076 183.821C147.91 184.249 148.088 184.747 148.472 184.931C148.57 184.977 148.672 185 148.772 185" fill="#91B3FA"/>
<path d="M116.745 185C116.845 185 116.947 184.977 117.044 184.931C117.429 184.747 117.607 184.249 117.441 183.821L101.536 142.619C101.371 142.19 100.925 141.992 100.54 142.177C100.155 142.361 99.9768 142.858 100.143 143.287L116.048 184.489C116.172 184.808 116.452 185 116.745 185Z" fill="#91B3FA"/>
<path d="M98.8268 185C99.1209 185 99.4009 184.808 99.5243 184.489L115.43 143.287C115.595 142.858 115.417 142.361 115.033 142.177C114.648 141.992 114.202 142.19 114.037 142.619L98.1306 183.821C97.9651 184.249 98.1429 184.747 98.5275 184.931C98.6251 184.977 98.7273 185 98.8268 185" fill="#91B3FA"/>
<path d="M90.6786 140.138C90.6307 139.868 90.696 139.588 90.855 139.376C91.0147 139.164 91.2519 139.041 91.5028 139.041H176.39C176.72 139.041 177.027 139.225 177.204 139.53C177.382 139.835 177.406 140.219 177.268 140.547L176.348 142.735C176.137 143.236 175.681 143.557 175.178 143.557H92.0852C91.6178 143.557 91.2164 143.192 91.1278 142.689L90.6786 140.138Z" fill="url(#paint50_linear)"/>
<path d="M89.9462 156.873C88.2319 156.671 86.4393 156.338 86.6837 155.876C87.6889 153.975 89.3398 144.912 89.9992 142.635C90.4032 141.241 90.1246 138.882 91.9068 138.876C91.9507 138.876 175.679 138.604 175.679 138.604C179.399 138.592 178.057 148.383 178.611 150.93C179.031 152.857 179.145 156.764 179.911 157.974C177.587 159.872 174.079 158.547 171.417 157.764C169.124 157.091 162.154 157.313 161.043 157.652C154.023 159.792 146.573 160.179 139.402 158.777C136.771 158.262 134.172 157.509 131.511 157.237C129.937 157.076 128.332 157.089 126.777 157.42C125.31 157.732 124.044 158.546 122.608 158.879C119.316 159.643 115.696 159.715 112.382 159.116C107.777 158.283 103.348 155.927 98.6878 156.187C96.7136 156.297 92.389 157.091 91.9352 157.059C91.3961 157.021 90.6779 156.959 89.9462 156.873" fill="#7D97F4"/>
<path d="M98.1022 138.598C98.1992 138.598 98.2974 138.595 98.3957 138.589L98.3207 137.359C97.4267 137.413 96.6865 137.144 96.181 136.58C95.616 135.948 95.3839 134.978 95.5604 133.983C95.6147 133.674 95.7498 133.143 96.0414 133.05C96.4842 132.911 97.4183 133.527 97.9238 134.026L98.7926 133.15C98.503 132.864 96.989 131.456 95.6671 131.876C94.9722 132.096 94.5268 132.733 94.3438 133.769C94.0988 135.152 94.4324 136.476 95.2592 137.4C95.9554 138.178 96.9567 138.598 98.1022 138.598" fill="url(#paint51_linear)"/>
<path d="M98.1474 131.383H106.043C106.182 131.383 105.977 131.483 105.977 131.621V137.6C105.977 138.787 105.331 139.468 104.141 139.468H100.05C98.8604 139.468 97.6529 138.787 97.6529 137.6V131.621C97.6529 131.483 98.0084 131.383 98.1474 131.383" fill="url(#paint52_linear)"/>
<path d="M120.951 138.598C121.048 138.598 121.146 138.595 121.244 138.589L121.169 137.359C120.275 137.413 119.534 137.144 119.03 136.58C118.465 135.948 118.233 134.978 118.409 133.983C118.463 133.674 118.598 133.143 118.889 133.05C119.332 132.911 120.267 133.527 120.772 134.026L121.641 133.15C121.352 132.864 119.838 131.456 118.516 131.876C117.821 132.096 117.375 132.733 117.192 133.769C116.947 135.152 117.281 136.476 118.108 137.4C118.804 138.178 119.805 138.598 120.951 138.598" fill="url(#paint53_linear)"/>
<path d="M120.996 131.383H128.892C129.031 131.383 128.76 131.483 128.76 131.621V137.6C128.76 138.787 128.18 139.468 126.99 139.468H122.898C121.709 139.468 120.655 138.787 120.655 137.6V131.621C120.655 131.483 120.857 131.383 120.996 131.383" fill="url(#paint54_linear)"/>
<path d="M124.398 137.353L127.999 133.891L132.98 135.991C132.98 135.991 137.938 136.757 140.776 135.991C143.614 135.224 143.614 135.224 143.614 135.224L150.026 133.233L151.034 136.072C151.29 136.793 151.032 137.593 150.407 138.036C149.853 138.43 149.202 138.862 148.788 139.043C147.944 139.411 127.97 138.788 127.97 138.788L124.398 137.353" fill="url(#paint55_linear)"/>
<path d="M156.853 139.289C156.756 139.289 156.658 139.285 156.56 139.279L156.635 138.049C157.529 138.103 158.27 137.834 158.775 137.27C159.34 136.638 159.572 135.668 159.395 134.673C159.341 134.365 159.206 133.833 158.914 133.74C158.471 133.602 157.537 134.217 157.032 134.716L156.163 133.84C156.453 133.554 157.967 132.146 159.288 132.566C159.983 132.787 160.429 133.423 160.612 134.459C160.857 135.843 160.523 137.166 159.696 138.09C159 138.869 157.999 139.288 156.853 139.289" fill="url(#paint56_linear)"/>
<path d="M156.808 132.257H148.912C148.773 132.257 148.914 132.173 148.914 132.311V138.29C148.914 139.477 149.624 140.124 150.814 140.124H154.906C156.095 140.124 157.239 139.477 157.239 138.29V132.311C157.239 132.173 156.947 132.257 156.808 132.257" fill="url(#paint57_linear)"/>
<path d="M72.53 201.31H86.93V204.1H81.11V223H78.2V204.1H72.53V201.31ZM92.8583 223.3C91.6783 223.3 90.6083 223.05 89.6483 222.55C88.7083 222.05 87.9583 221.32 87.3983 220.36C86.8583 219.38 86.5883 218.19 86.5883 216.79C86.5883 215.39 86.8683 214.19 87.4283 213.19C88.0083 212.19 88.7783 211.42 89.7383 210.88C90.7183 210.34 91.7883 210.07 92.9483 210.07C94.0683 210.07 95.0183 210.31 95.7983 210.79C96.5783 211.27 97.1883 211.85 97.6283 212.53L97.8383 210.58H100.418V223H97.6283V220.96C97.3883 221.28 97.0383 221.62 96.5783 221.98C96.1383 222.34 95.5983 222.65 94.9583 222.91C94.3383 223.17 93.6383 223.3 92.8583 223.3ZM93.6083 220.99C94.6283 220.99 95.4983 220.71 96.2183 220.15C96.9383 219.57 97.4083 218.79 97.6283 217.81V215.35C97.3883 214.49 96.8883 213.78 96.1283 213.22C95.3683 212.66 94.4983 212.38 93.5183 212.38C92.7583 212.38 92.0683 212.56 91.4483 212.92C90.8283 213.28 90.3283 213.78 89.9483 214.42C89.5883 215.06 89.4083 215.8 89.4083 216.64C89.4083 217.46 89.5983 218.2 89.9783 218.86C90.3583 219.5 90.8683 220.02 91.5083 220.42C92.1483 220.8 92.8483 220.99 93.6083 220.99ZM105.276 199.75H108.066V223H105.276V199.75ZM112.922 223V199.75H115.712V215.44L122.132 210.28L123.842 211.78L119.252 215.5L124.442 223H121.172L117.332 217.06L115.712 218.35V223H112.922ZM145.653 223H142.263L140.463 220.6C139.843 221.38 139.013 222.03 137.973 222.55C136.953 223.05 135.733 223.3 134.313 223.3C132.953 223.3 131.733 223.02 130.653 222.46C129.573 221.9 128.723 221.14 128.103 220.18C127.483 219.22 127.163 218.12 127.143 216.88C127.163 215.84 127.433 214.89 127.953 214.03C128.473 213.15 129.163 212.41 130.023 211.81C130.883 211.21 131.823 210.78 132.843 210.52L131.883 209.23C131.583 208.81 131.253 208.24 130.893 207.52C130.533 206.8 130.353 206.03 130.353 205.21C130.353 204.37 130.563 203.58 130.983 202.84C131.403 202.08 132.003 201.46 132.783 200.98C133.583 200.5 134.553 200.26 135.693 200.26C136.873 200.26 137.923 200.5 138.843 200.98C139.783 201.44 140.553 201.98 141.153 202.6L139.713 204.55C139.093 204.01 138.483 203.57 137.883 203.23C137.303 202.89 136.723 202.72 136.143 202.72C135.283 202.72 134.603 202.99 134.103 203.53C133.603 204.05 133.353 204.68 133.353 205.42C133.353 205.8 133.423 206.18 133.563 206.56C133.723 206.92 133.883 207.24 134.043 207.52C134.203 207.78 134.303 207.94 134.343 208L140.103 215.65L142.173 210.25H144.873L141.843 217.96L145.653 223ZM130.203 216.76C130.203 217.54 130.403 218.23 130.803 218.83C131.203 219.41 131.743 219.87 132.423 220.21C133.123 220.53 133.883 220.69 134.703 220.69C135.723 220.69 136.583 220.49 137.283 220.09C137.983 219.67 138.523 219.16 138.903 218.56L134.373 212.56C133.653 212.62 132.973 212.84 132.333 213.22C131.693 213.6 131.173 214.1 130.773 214.72C130.393 215.32 130.203 216 130.203 216.76ZM166.28 221.38C165.92 221.62 165.43 221.89 164.81 222.19C164.19 222.49 163.46 222.75 162.62 222.97C161.8 223.17 160.9 223.26 159.92 223.24C158.22 223.22 156.7 222.92 155.36 222.34C154.02 221.76 152.87 220.97 151.91 219.97C150.97 218.95 150.25 217.79 149.75 216.49C149.25 215.19 149 213.8 149 212.32C149 210.7 149.26 209.21 149.78 207.85C150.32 206.47 151.07 205.28 152.03 204.28C152.99 203.26 154.12 202.47 155.42 201.91C156.74 201.35 158.18 201.07 159.74 201.07C161.04 201.07 162.22 201.25 163.28 201.61C164.34 201.95 165.25 202.35 166.01 202.81L164.84 205.54C164.24 205.14 163.51 204.76 162.65 204.4C161.79 204.04 160.85 203.86 159.83 203.86C158.77 203.86 157.77 204.08 156.83 204.52C155.89 204.94 155.06 205.53 154.34 206.29C153.62 207.03 153.05 207.91 152.63 208.93C152.23 209.93 152.03 211.01 152.03 212.17C152.03 213.73 152.35 215.14 152.99 216.4C153.65 217.64 154.57 218.62 155.75 219.34C156.95 220.06 158.35 220.42 159.95 220.42C161.07 220.42 162.05 220.26 162.89 219.94C163.75 219.6 164.46 219.21 165.02 218.77L166.28 221.38ZM171.511 223V213.07H169.381V210.55H171.511V205.33C171.511 203.53 171.921 202.15 172.741 201.19C173.561 200.23 174.761 199.75 176.341 199.75C176.741 199.75 177.191 199.81 177.691 199.93C178.211 200.05 178.671 200.24 179.071 200.5L177.871 202.54C177.691 202.36 177.491 202.24 177.271 202.18C177.051 202.1 176.831 202.06 176.611 202.06C175.891 202.06 175.321 202.31 174.901 202.81C174.501 203.31 174.301 204.16 174.301 205.36V210.55H178.261V213.07H174.301V223H171.511Z" fill="#3C3C3C"/>
<defs>
<linearGradient id="paint0_linear" x1="230.015" y1="185.073" x2="98.7196" y2="69.9074" gradientUnits="userSpaceOnUse">
<stop stop-color="#DAE3FE"/>
<stop offset="1" stop-color="#E9EFFD"/>
</linearGradient>
<linearGradient id="paint1_linear" x1="79.3823" y1="103.306" x2="189.532" y2="103.306" gradientUnits="userSpaceOnUse">
<stop stop-color="#4F52FF"/>
<stop offset="1" stop-color="#4042E2"/>
</linearGradient>
<linearGradient id="paint2_linear" x1="176.236" y1="84.4159" x2="212.672" y2="84.4159" gradientUnits="userSpaceOnUse">
<stop stop-color="#4F52FF"/>
<stop offset="1" stop-color="#4042E2"/>
</linearGradient>
<linearGradient id="paint3_linear" x1="184.146" y1="-30.0459" x2="165.813" y2="1.78734" gradientUnits="userSpaceOnUse">
<stop stop-color="#09005D"/>
<stop offset="1" stop-color="#1A0F91"/>
</linearGradient>
<linearGradient id="paint4_linear" x1="230.015" y1="185.073" x2="98.7197" y2="69.9073" gradientUnits="userSpaceOnUse">
<stop stop-color="#A8C2FB"/>
<stop offset="1" stop-color="#ADC6FB"/>
</linearGradient>
<linearGradient id="paint5_linear" x1="184.146" y1="-30.0459" x2="165.813" y2="1.78735" gradientUnits="userSpaceOnUse">
<stop stop-color="#6579C8"/>
<stop offset="1" stop-color="#6B7ED8"/>
</linearGradient>
<linearGradient id="paint6_linear" x1="230.015" y1="185.073" x2="98.7197" y2="69.9072" gradientUnits="userSpaceOnUse">
<stop stop-color="#A8C2FB"/>
<stop offset="1" stop-color="#ADC6FB"/>
</linearGradient>
<linearGradient id="paint7_linear" x1="184.146" y1="-30.0459" x2="165.813" y2="1.78732" gradientUnits="userSpaceOnUse">
<stop stop-color="#6579C8"/>
<stop offset="1" stop-color="#6B7ED8"/>
</linearGradient>
<linearGradient id="paint8_linear" x1="230.015" y1="185.073" x2="98.7197" y2="69.9075" gradientUnits="userSpaceOnUse">
<stop stop-color="#A8C2FB"/>
<stop offset="1" stop-color="#ADC6FB"/>
</linearGradient>
<linearGradient id="paint9_linear" x1="184.146" y1="-30.0458" x2="165.813" y2="1.78742" gradientUnits="userSpaceOnUse">
<stop stop-color="#6579C8"/>
<stop offset="1" stop-color="#6B7ED8"/>
</linearGradient>
<linearGradient id="paint10_linear" x1="52.7604" y1="240.9" x2="249.488" y2="28.2077" gradientUnits="userSpaceOnUse">
<stop stop-color="#53D8FF"/>
<stop offset="1" stop-color="#3840F7"/>
</linearGradient>
<linearGradient id="paint11_linear" x1="136.673" y1="173.294" x2="140.753" y2="147.567" gradientUnits="userSpaceOnUse">
<stop stop-color="#C32B78"/>
<stop offset="1" stop-color="#593092"/>
</linearGradient>
<linearGradient id="paint12_linear" x1="154.75" y1="139.996" x2="144.576" y2="139.996" gradientUnits="userSpaceOnUse">
<stop stop-color="#FEBBBA"/>
<stop offset="1" stop-color="#FF928E"/>
</linearGradient>
<linearGradient id="paint13_linear" x1="131.395" y1="-6.66497" x2="127.798" y2="-30.1598" gradientUnits="userSpaceOnUse">
<stop stop-color="#09005D"/>
<stop offset="1" stop-color="#1A0F91"/>
</linearGradient>
<linearGradient id="paint14_linear" x1="156.819" y1="156.654" x2="160.527" y2="182.334" gradientUnits="userSpaceOnUse">
<stop stop-color="#4F52FF"/>
<stop offset="1" stop-color="#4042E2"/>
</linearGradient>
<linearGradient id="paint15_linear" x1="166.644" y1="178.711" x2="162.955" y2="178.711" gradientUnits="userSpaceOnUse">
<stop stop-color="#A22B25"/>
<stop offset="1" stop-color="#C0423C"/>
</linearGradient>
<linearGradient id="paint16_linear" x1="112.13" y1="-3.71157" x2="108.533" y2="-27.206" gradientUnits="userSpaceOnUse">
<stop stop-color="#09005D"/>
<stop offset="1" stop-color="#1A0F91"/>
</linearGradient>
<linearGradient id="paint17_linear" x1="138.366" y1="159.319" x2="142.073" y2="184.999" gradientUnits="userSpaceOnUse">
<stop stop-color="#4F52FF"/>
<stop offset="1" stop-color="#4042E2"/>
</linearGradient>
<linearGradient id="paint18_linear" x1="166.205" y1="162.627" x2="192.265" y2="155.492" gradientUnits="userSpaceOnUse">
<stop stop-color="#09005D"/>
<stop offset="1" stop-color="#1A0F91"/>
</linearGradient>
<linearGradient id="paint19_linear" x1="149.169" y1="179.02" x2="144.765" y2="179.02" gradientUnits="userSpaceOnUse">
<stop stop-color="#A22B25"/>
<stop offset="1" stop-color="#C0423C"/>
</linearGradient>
<linearGradient id="paint20_linear" x1="193.797" y1="155.76" x2="172.662" y2="160.7" gradientUnits="userSpaceOnUse">
<stop stop-color="#09005D"/>
<stop offset="1" stop-color="#1A0F91"/>
</linearGradient>
<linearGradient id="paint21_linear" x1="164.21" y1="104.857" x2="177.025" y2="119.893" gradientUnits="userSpaceOnUse">
<stop stop-color="#A22B25"/>
<stop offset="1" stop-color="#C0423C"/>
</linearGradient>
<linearGradient id="paint22_linear" x1="42.5901" y1="-290.511" x2="51.9676" y2="-259.686" gradientUnits="userSpaceOnUse">
<stop stop-color="#FF928E"/>
<stop offset="1" stop-color="#FE7062"/>
</linearGradient>
<linearGradient id="paint23_linear" x1="172.268" y1="126.915" x2="175.508" y2="126.915" gradientUnits="userSpaceOnUse">
<stop stop-color="#E1473D"/>
<stop offset="1" stop-color="#E9605A"/>
</linearGradient>
<linearGradient id="paint24_linear" x1="92.2686" y1="-213.65" x2="96.3392" y2="-196.651" gradientUnits="userSpaceOnUse">
<stop stop-color="#A22B25"/>
<stop offset="1" stop-color="#C0423C"/>
</linearGradient>
<linearGradient id="paint25_linear" x1="174.216" y1="99.2059" x2="163.054" y2="113.613" gradientUnits="userSpaceOnUse">
<stop stop-color="#09005D"/>
<stop offset="1" stop-color="#1A0F91"/>
</linearGradient>
<linearGradient id="paint26_linear" x1="95.5464" y1="-214.434" x2="99.6171" y2="-197.435" gradientUnits="userSpaceOnUse">
<stop stop-color="#A22B25"/>
<stop offset="1" stop-color="#C0423C"/>
</linearGradient>
<linearGradient id="paint27_linear" x1="116.759" y1="158.463" x2="130.245" y2="158.463" gradientUnits="userSpaceOnUse">
<stop stop-color="#FEBBBA"/>
<stop offset="1" stop-color="#FF928E"/>
</linearGradient>
<linearGradient id="paint28_linear" x1="104.64" y1="196.883" x2="143.817" y2="152.208" gradientUnits="userSpaceOnUse">
<stop stop-color="#4F52FF"/>
<stop offset="1" stop-color="#4042E2"/>
</linearGradient>
<linearGradient id="paint29_linear" x1="100.924" y1="159.382" x2="129.382" y2="159.382" gradientUnits="userSpaceOnUse">
<stop stop-color="#FEBBBA"/>
<stop offset="1" stop-color="#FF928E"/>
</linearGradient>
<linearGradient id="paint30_linear" x1="118.483" y1="144.573" x2="150.365" y2="144.573" gradientUnits="userSpaceOnUse">
<stop stop-color="#FDF53F"/>
<stop offset="0.664524" stop-color="#E57A58"/>
<stop offset="1" stop-color="#D93C65"/>
</linearGradient>
<linearGradient id="paint31_linear" x1="94.8093" y1="188.262" x2="133.987" y2="143.587" gradientUnits="userSpaceOnUse">
<stop stop-color="#4F52FF"/>
<stop offset="1" stop-color="#4042E2"/>
</linearGradient>
<linearGradient id="paint32_linear" x1="132.414" y1="96.4144" x2="147.461" y2="67.5136" gradientUnits="userSpaceOnUse">
<stop stop-color="#09005D"/>
<stop offset="1" stop-color="#1A0F91"/>
</linearGradient>
<linearGradient id="paint33_linear" x1="165.257" y1="39.1228" x2="155.879" y2="69.9482" gradientUnits="userSpaceOnUse">
<stop stop-color="#FF928E"/>
<stop offset="1" stop-color="#FE7062"/>
</linearGradient>
<linearGradient id="paint34_linear" x1="133.172" y1="122.234" x2="131.26" y2="109.937" gradientUnits="userSpaceOnUse">
<stop stop-color="#FEBBBA"/>
<stop offset="1" stop-color="#FF928E"/>
</linearGradient>
<linearGradient id="paint35_linear" x1="-266.245" y1="-702.545" x2="-280.521" y2="-731.832" gradientUnits="userSpaceOnUse">
<stop stop-color="#FEBBBA"/>
<stop offset="1" stop-color="#FF928E"/>
</linearGradient>
<linearGradient id="paint36_linear" x1="-266.834" y1="-702.24" x2="-281.11" y2="-731.527" gradientUnits="userSpaceOnUse">
<stop stop-color="#09005D"/>
<stop offset="1" stop-color="#1A0F91"/>
</linearGradient>
<linearGradient id="paint37_linear" x1="-269.419" y1="-700.993" x2="-283.696" y2="-730.279" gradientUnits="userSpaceOnUse">
<stop stop-color="#FEBBBA"/>
<stop offset="1" stop-color="#FF928E"/>
</linearGradient>
<linearGradient id="paint38_linear" x1="100.917" y1="98.318" x2="62.1764" y2="157.768" gradientUnits="userSpaceOnUse">
<stop stop-color="#09005D"/>
<stop offset="1" stop-color="#1A0F91"/>
</linearGradient>
<linearGradient id="paint39_linear" x1="117.064" y1="24.4618" x2="107.687" y2="55.287" gradientUnits="userSpaceOnUse">
<stop stop-color="#FF928E"/>
<stop offset="1" stop-color="#FE7062"/>
</linearGradient>
<linearGradient id="paint40_linear" x1="88.6275" y1="125" x2="90.4647" y2="113.182" gradientUnits="userSpaceOnUse">
<stop stop-color="#FEBBBA"/>
<stop offset="1" stop-color="#FF928E"/>
</linearGradient>
<linearGradient id="paint41_linear" x1="98.0226" y1="107.924" x2="84.133" y2="112.434" gradientUnits="userSpaceOnUse">
<stop stop-color="#FEBBBA"/>
<stop offset="1" stop-color="#FF928E"/>
</linearGradient>
<linearGradient id="paint42_linear" x1="98.0362" y1="96.4408" x2="59.296" y2="155.891" gradientUnits="userSpaceOnUse">
<stop stop-color="#09005D"/>
<stop offset="1" stop-color="#1A0F91"/>
</linearGradient>
<linearGradient id="paint43_linear" x1="97.6252" y1="106.7" x2="83.7355" y2="111.211" gradientUnits="userSpaceOnUse">
<stop stop-color="#FEBBBA"/>
<stop offset="1" stop-color="#FF928E"/>
</linearGradient>
<linearGradient id="paint44_linear" x1="81.0468" y1="138.417" x2="55.3562" y2="138.417" gradientUnits="userSpaceOnUse">
<stop stop-color="#FEBBBA"/>
<stop offset="1" stop-color="#FF928E"/>
</linearGradient>
<linearGradient id="paint45_linear" x1="104.808" y1="164.072" x2="90.9474" y2="164.072" gradientUnits="userSpaceOnUse">
<stop stop-color="#FEBBBA"/>
<stop offset="1" stop-color="#FF928E"/>
</linearGradient>
<linearGradient id="paint46_linear" x1="6.28356" y1="-150.513" x2="13.6977" y2="-123.406" gradientUnits="userSpaceOnUse">
<stop stop-color="#09005D"/>
<stop offset="1" stop-color="#1A0F91"/>
</linearGradient>
<linearGradient id="paint47_linear" x1="121.081" y1="165.017" x2="91.8338" y2="165.017" gradientUnits="userSpaceOnUse">
<stop stop-color="#FEBBBA"/>
<stop offset="1" stop-color="#FF928E"/>
</linearGradient>
<linearGradient id="paint48_linear" x1="23.8522" y1="-155.315" x2="31.2662" y2="-128.208" gradientUnits="userSpaceOnUse">
<stop stop-color="#09005D"/>
<stop offset="1" stop-color="#1A0F91"/>
</linearGradient>
<linearGradient id="paint49_linear" x1="135.409" y1="100.619" x2="116.068" y2="119.022" gradientUnits="userSpaceOnUse">
<stop stop-color="#FF928E"/>
<stop offset="1" stop-color="#FE7062"/>
</linearGradient>
<linearGradient id="paint50_linear" x1="177.357" y1="141.299" x2="90.6631" y2="141.299" gradientUnits="userSpaceOnUse">
<stop stop-color="#9CFFFB"/>
<stop offset="1" stop-color="#9BFFFA"/>
</linearGradient>
<linearGradient id="paint51_linear" x1="94.265" y1="135.198" x2="98.7926" y2="135.198" gradientUnits="userSpaceOnUse">
<stop stop-color="#DAE3FE"/>
<stop offset="1" stop-color="#E9EFFD"/>
</linearGradient>
<linearGradient id="paint52_linear" x1="97.6529" y1="135.425" x2="106.092" y2="135.425" gradientUnits="userSpaceOnUse">
<stop stop-color="#DAE3FE"/>
<stop offset="1" stop-color="#E9EFFD"/>
</linearGradient>
<linearGradient id="paint53_linear" x1="117.114" y1="135.198" x2="121.641" y2="135.198" gradientUnits="userSpaceOnUse">
<stop stop-color="#DAE3FE"/>
<stop offset="1" stop-color="#E9EFFD"/>
</linearGradient>
<linearGradient id="paint54_linear" x1="120.655" y1="135.425" x2="128.932" y2="135.425" gradientUnits="userSpaceOnUse">
<stop stop-color="#DAE3FE"/>
<stop offset="1" stop-color="#E9EFFD"/>
</linearGradient>
<linearGradient id="paint55_linear" x1="141.06" y1="136.196" x2="167.794" y2="136.196" gradientUnits="userSpaceOnUse">
<stop stop-color="#FEBBBA"/>
<stop offset="1" stop-color="#FF928E"/>
</linearGradient>
<linearGradient id="paint56_linear" x1="156.163" y1="135.888" x2="160.691" y2="135.888" gradientUnits="userSpaceOnUse">
<stop stop-color="#DAE3FE"/>
<stop offset="1" stop-color="#E9EFFD"/>
</linearGradient>
<linearGradient id="paint57_linear" x1="148.851" y1="136.178" x2="157.239" y2="136.178" gradientUnits="userSpaceOnUse">
<stop stop-color="#DAE3FE"/>
<stop offset="1" stop-color="#E9EFFD"/>
</linearGradient>
</defs>
</svg>